<svg width="32" height="32" viewBox="0 0 32 32" fill="none" xmlns="http://www.w3.org/2000/svg">
<path fill-rule="evenodd" clip-rule="evenodd" d="M7.86914 6.48345C7.86914 6.01168 8.25158 5.62924 8.72335 5.62924H18.752C19.9453 5.62924 20.9753 6.32832 21.4548 7.33926C22.997 7.45819 24.2114 8.74729 24.2114 10.32V23.3811C24.2114 25.0322 22.8729 26.3708 21.2217 26.3708H11.193C11.0077 26.3708 10.8361 26.3117 10.6961 26.2114C10.6622 26.1993 10.6293 26.1827 10.5983 26.1614L8.21289 24.5271C8.15306 24.4861 8.10693 24.4325 8.0756 24.3724C7.94692 24.2229 7.86914 24.0283 7.86914 23.8155V6.48345ZM9.93242 24.6697L10.3388 24.9482V24.6697H9.93242ZM18.752 6.48345C19.4474 6.48345 20.0651 6.8158 20.455 7.33031H11.193C10.7213 7.33031 10.3388 7.71275 10.3388 8.18452V23.8155H9.57756H8.72335V22.9613V7.33766V6.48345H9.57756H18.752ZM11.193 9.03872V23.8155H18.752C19.9314 23.8155 20.8875 22.8594 20.8875 21.68V8.61897C20.8875 8.4701 20.8723 8.32479 20.8433 8.18452H12.0473H11.193V9.03872ZM18.752 24.6697H11.193V25.5166H12.0473H21.2217C22.4011 25.5166 23.3572 24.5605 23.3572 23.3811V10.32C23.3572 9.31158 22.6582 8.46639 21.7183 8.24255C21.7338 8.36585 21.7417 8.49148 21.7417 8.61897V21.68C21.7417 23.3312 20.4032 24.6697 18.752 24.6697Z" fill="url(#paint0_linear)"/>
<defs>
<linearGradient id="paint0_linear" x1="-17.5301" y1="16.4271" x2="30.8395" y2="15.9787" gradientUnits="userSpaceOnUse">
<stop stop-color="#FC522D"/>
<stop offset="1" stop-color="#E82DBF"/>
</linearGradient>
</defs>
</svg>
