<svg width="32" height="32" viewBox="0 0 32 32" fill="none" xmlns="http://www.w3.org/2000/svg">
<path fill-rule="evenodd" clip-rule="evenodd" d="M7.86914 6.48342C7.86914 6.01165 8.25158 5.62921 8.72335 5.62921H18.752C19.9453 5.62921 20.9753 6.32829 21.4548 7.33923C22.997 7.45816 24.2114 8.74726 24.2114 10.32V23.381C24.2114 25.0322 22.8729 26.3708 21.2217 26.3708H11.193C11.0077 26.3708 10.8361 26.3117 10.6961 26.2114C10.6622 26.1993 10.6293 26.1827 10.5983 26.1614L8.21289 24.527C8.15306 24.486 8.10692 24.4325 8.0756 24.3724C7.94692 24.2228 7.86914 24.0282 7.86914 23.8155V6.48342ZM9.93242 24.6697L10.3388 24.9481V24.6697H9.93242ZM18.752 6.48342C19.4474 6.48342 20.0651 6.81576 20.455 7.33028H11.193C10.7213 7.33028 10.3388 7.71272 10.3388 8.18448V23.8155H9.57756H8.72335V22.9613V7.33763V6.48342H9.57756H18.752ZM11.193 9.03869V23.8155H18.752C19.9314 23.8155 20.8875 22.8594 20.8875 21.68V8.61894C20.8875 8.47007 20.8723 8.32476 20.8433 8.18448H12.0473H11.193V9.03869ZM18.752 24.6697H11.193V25.5165H12.0473H21.2217C22.4011 25.5165 23.3572 24.5604 23.3572 23.381V10.32C23.3572 9.31155 22.6582 8.46636 21.7183 8.24252C21.7338 8.36582 21.7417 8.49145 21.7417 8.61894V21.68C21.7417 23.3311 20.4032 24.6697 18.752 24.6697Z" fill="#FF737F"/>
</svg>
