<svg width="553" height="206" viewBox="0 0 553 206" fill="none" xmlns="http://www.w3.org/2000/svg">
<g clip-path="url(#clip0)">
<path d="M285.4 68.3L311.7 66.6C312.3 70.9 313.4 74.1 315.2 76.4C318.1 80 322.1 81.8 327.4 81.8C331.3 81.8 334.4 80.9 336.5 79C338.5 77.5 339.7 75.1 339.7 72.6C339.7 70.2 338.6 67.9 336.7 66.4C334.7 64.6 330 62.8 322.6 61.2C310.5 58.5 301.8 54.9 296.7 50.3C291.6 46 288.7 39.7 288.9 33C288.9 28.4 290.3 23.8 292.9 20C295.9 15.7 300 12.3 304.9 10.4C310.2 8.10001 317.6 6.90001 326.9 6.90001C338.3 6.90001 347 9.00001 353 13.3C359 17.5 362.6 24.3 363.7 33.6L337.7 35.1C337 31.1 335.6 28.2 333.3 26.3C331 24.4 328 23.5 324.1 23.5C320.9 23.5 318.5 24.2 316.9 25.5C315.4 26.7 314.4 28.5 314.5 30.5C314.5 32 315.3 33.4 316.5 34.3C317.8 35.5 320.9 36.6 325.8 37.6C337.9 40.2 346.5 42.8 351.8 45.5C357.1 48.2 360.9 51.5 363.2 55.4C365.6 59.4 366.8 64 366.7 68.7C366.7 74.3 365.1 79.9 361.9 84.6C358.6 89.5 354 93.3 348.6 95.6C342.9 98.1 335.7 99.4 327.1 99.4C311.9 99.4 301.4 96.5 295.5 90.6C289.6 84.7 286.1 77.3 285.4 68.3ZM6.3 97.9V8.50001H52.4C60.9 8.50001 67.5 9.20001 72 10.7C76.4 12.1 80.3 15 82.9 18.9C85.8 23.2 87.2 28.2 87.1 33.4C87.4 42.2 82.9 50.6 75.2 55C72.2 56.7 68.9 57.9 65.5 58.5C68 59.2 70.5 60.4 72.7 61.8C74.4 63.2 75.8 64.8 77.1 66.5C78.6 68.2 79.9 70.1 81 72.1L94.4 98H63L48.2 70.5C46.3 67 44.7 64.7 43.2 63.6C41.2 62.2 38.8 61.5 36.4 61.5H34V97.8H6.3V97.9ZM34 44.7H45.7C48.2 44.5 50.6 44.1 53 43.5C54.8 43.2 56.4 42.2 57.5 40.7C60.2 37.1 59.8 32 56.5 28.9C54.7 27.4 51.2 26.6 46.2 26.6H34V44.7ZM0 174.5L26.3 172.8C26.9 177.1 28 180.3 29.8 182.6C32.6 186.2 36.7 188.1 42 188.1C45.9 188.1 49 187.2 51.1 185.3C53.1 183.7 54.3 181.4 54.3 178.9C54.3 176.5 53.2 174.2 51.3 172.7C49.3 170.9 44.6 169.1 37.1 167.5C25 164.8 16.3 161.2 11.2 156.6C6.1 152.3 3.2 146 3.4 139.3C3.4 134.7 4.8 130.1 7.4 126.3C10.4 122 14.5 118.6 19.4 116.7C24.7 114.4 32.1 113.2 41.4 113.2C52.8 113.2 61.5 115.3 67.5 119.6C73.5 123.9 77 130.6 78.1 139.9L52.1 141.4C51.4 137.4 50 134.5 47.7 132.6C45.5 130.7 42.4 129.8 38.5 129.9C35.3 129.9 32.9 130.6 31.3 132C29.7 133.2 28.8 135 28.9 137C28.9 138.5 29.7 139.9 30.9 140.8C32.2 142 35.3 143.1 40.2 144.1C52.3 146.7 60.9 149.3 66.2 152C71.5 154.7 75.3 158 77.6 161.9C80 165.9 81.2 170.5 81.2 175.1C81.2 180.7 79.5 186.2 76.4 190.9C73.1 195.8 68.5 199.6 63.1 201.9C57.4 204.4 50.2 205.7 41.6 205.7C26.4 205.7 15.9 202.8 10 196.9C4.1 190.9 0.8 183.5 0 174.5H0Z" fill="white"/>
<path d="M133 167.5L157.2 174.8C155.9 180.9 153.2 186.7 149.5 191.8C146.1 196.3 141.6 199.8 136.5 202.1C131.3 204.4 124.7 205.6 116.7 205.6C107 205.6 99.0002 204.2 92.9002 201.4C86.7002 198.6 81.4002 193.6 76.9002 186.5C72.4002 179.4 70.2002 170.3 70.2002 159.2C70.2002 144.4 74.1002 133 82.0002 125.1C89.9002 117.2 101 113.2 115.4 113.2C126.7 113.2 135.5 115.5 142 120C148.4 124.6 153.2 131.6 156.4 141L132 146.4C131.4 144.3 130.5 142.2 129.3 140.4C127.8 138.3 125.9 136.7 123.6 135.5C121.3 134.3 118.7 133.8 116.1 133.8C109.8 133.8 105 136.3 101.7 141.4C99.2002 145.1 97.9002 151 97.9002 159C97.9002 168.9 99.4002 175.7 102.4 179.4C105.4 183.1 109.6 184.9 115.1 184.9C120.4 184.9 124.4 183.4 127.1 180.5C129.8 177.4 131.8 173.1 133 167.5ZM189.5 114.7H217.1V146H247.3V114.7H275.1V204.1H247.3V167.9H217.1V204.1H189.5V114.7Z" fill="white"/>
<path d="M271.3 159.4C271.3 144.8 275.4 133.4 283.5 125.3C291.6 117.2 303 113.1 317.5 113.1C332.4 113.1 343.8 117.1 351.9 125.1C360 133.1 364 144.3 364 158.7C364 169.2 362.2 177.7 358.7 184.4C355.3 191 350 196.4 343.5 200C336.8 203.7 328.5 205.6 318.6 205.6C308.5 205.6 300.2 204 293.6 200.8C286.8 197.4 281.2 192.1 277.5 185.6C273.4 178.6 271.3 169.9 271.3 159.4ZM298.9 159.5C298.9 168.5 300.6 175 303.9 179C307.2 182.9 311.8 184.9 317.6 184.9C323.5 184.9 328.1 183 331.4 179.1C334.7 175.2 336.3 168.3 336.3 158.3C336.3 149.9 334.6 143.7 331.2 139.9C327.8 136 323.2 134.1 317.4 134.1C312.3 133.9 307.4 136.1 304 140C300.6 143.9 298.9 150.4 298.9 159.5ZM392.3 159.4C392.3 144.8 396.4 133.4 404.5 125.3C412.6 117.2 424 113.1 438.5 113.1C453.4 113.1 464.9 117.1 472.9 125.1C480.9 133.1 485 144.3 485 158.7C485 169.2 483.2 177.7 479.7 184.4C476.3 191 471 196.4 464.5 200C457.8 203.7 449.5 205.6 439.6 205.6C429.5 205.6 421.2 204 414.6 200.8C407.8 197.4 402.2 192.1 398.5 185.6C394.4 178.6 392.3 169.9 392.3 159.4ZM419.9 159.5C419.9 168.5 421.6 175 424.9 179C428.2 182.9 432.8 184.9 438.6 184.9C444.5 184.9 449.1 183 452.4 179.1C455.7 175.2 457.3 168.3 457.3 158.3C457.3 149.9 455.6 143.7 452.2 139.9C448.8 136 444.2 134.1 438.4 134.1C433.3 133.9 428.3 136.1 425 140C421.6 143.9 419.9 150.4 419.9 159.5Z" fill="white"/>
<path d="M482.1 114.7H509.7V182.1H552.8V204.1H482V114.7H482.1Z" fill="white"/>
<path d="M451.678 109.541C479.466 88.6007 488.034 53.104 470.817 30.2567C453.6 7.40934 417.116 5.86313 389.329 26.8031C361.542 47.7431 352.973 83.2398 370.19 106.087C387.408 128.934 423.891 130.481 451.678 109.541Z" stroke="white" stroke-width="4" stroke-miterlimit="10"/>
<path d="M451.678 109.541C479.466 88.6007 488.034 53.104 470.817 30.2567C453.6 7.40934 417.116 5.86313 389.329 26.8031C361.542 47.7431 352.973 83.2398 370.19 106.087C387.408 128.934 423.891 130.481 451.678 109.541Z" stroke="white" stroke-width="4" stroke-miterlimit="10"/>
<path d="M392.4 61.6L402.4 54.6L414.7 72.1C416.8 74.9 418.4 77.9 419.6 81.2C420.3 83.7 420.1 86.4 419.1 88.8C417.8 91.8 415.7 94.3 412.9 96.1C409.6 98.4 406.8 99.7 404.4 100.1C402.1 100.5 399.7 100.1 397.5 99.1C395.1 97.9 393 96.2 391.4 94L400 86C400.7 87.1 401.6 88.1 402.6 88.9C403.3 89.4 404.1 89.7 405 89.7C405.7 89.7 406.4 89.4 406.9 89C407.9 88.4 408.6 87.2 408.5 86C408.2 84.3 407.5 82.6 406.4 81.3L392.4 61.6ZM422.4 72.7L431.5 65.5C432.5 66.7 433.8 67.6 435.2 68.1C437.2 68.7 439.3 68.3 441 67C442.2 66.2 443.2 65.1 443.6 63.7C444.2 61.9 443.2 59.9 441.4 59.3C441.1 59.2 440.8 59.1 440.5 59.1C439.3 59 437.2 59.5 434.1 60.8C429 62.9 425 63.7 422 63.4C419.1 63.1 416.4 61.6 414.8 59.1C413.6 57.4 413 55.4 412.9 53.4C412.9 51.1 413.5 48.8 414.8 46.9C416.7 44.2 419 41.9 421.8 40.1C426 37.2 429.7 35.8 432.9 35.8C436.1 35.8 439.1 37.3 441.9 40.4L432.9 47.5C431.1 45.2 427.7 44.7 425.4 46.5L425.1 46.8C424.1 47.4 423.4 48.3 423 49.4C422.7 50.2 422.9 51.1 423.4 51.8C423.8 52.3 424.4 52.7 425.1 52.7C425.9 52.8 427.3 52.4 429.3 51.5C434.3 49.4 438.1 48.2 440.7 47.8C442.9 47.4 445.2 47.6 447.3 48.5C449.2 49.3 450.8 50.7 451.9 52.4C453.3 54.4 454.1 56.8 454.2 59.3C454.3 61.9 453.6 64.4 452.2 66.6C450.4 69.3 448.1 71.6 445.4 73.4C439.9 77.2 435.4 78.8 431.8 78.2C427.9 77.6 424.7 75.6 422.4 72.7Z" fill="white"/>
</g>
<defs>
<clipPath id="clip0">
<rect width="552.8" height="205.3" fill="white" transform="translate(0 0.300003)"/>
</clipPath>
</defs>
</svg>
