<svg width="569" height="228" viewBox="0 0 569 228" fill="none" xmlns="http://www.w3.org/2000/svg">
<path fill-rule="evenodd" clip-rule="evenodd" d="M0 9.51394C0 4.43337 4.11861 0.314758 9.19918 0.314758H117.2C130.051 0.314758 141.143 7.84326 146.307 18.7303C162.916 20.0111 175.994 33.8938 175.994 50.831V191.488C175.994 209.27 161.579 223.685 143.797 223.685H35.7958C33.7997 223.685 31.952 223.049 30.4443 221.969C30.0794 221.839 29.7251 221.66 29.3904 221.43L3.70165 203.83C3.05695 203.388 2.55999 202.811 2.22266 202.163C0.837343 200.553 0 198.458 0 196.167V9.51394ZM22.2196 205.366L26.5967 208.365V205.366H22.2196ZM117.2 9.51394C124.689 9.51394 131.341 13.093 135.54 18.6339H35.7958C30.7153 18.6339 26.5967 22.7525 26.5967 27.8331V196.167H18.3984H9.19918V186.968V18.7131V9.51394H18.3984H117.2ZM35.7958 37.0323V196.167H117.2C129.902 196.167 140.198 185.87 140.198 173.169V32.5119C140.198 30.9087 140.034 29.3438 139.722 27.8331H44.995H35.7958V37.0323ZM117.2 205.366H35.7958V214.486H44.995H143.797C156.498 214.486 166.795 204.19 166.795 191.488V50.831C166.795 39.9707 159.267 30.8686 149.144 28.4581C149.311 29.7859 149.397 31.1389 149.397 32.5119V173.169C149.397 190.951 134.982 205.366 117.2 205.366Z" fill="url(#paint0_linear)"/>
<path fill-rule="evenodd" clip-rule="evenodd" d="M267.702 87.2C267.702 91.488 270.198 93.632 275.19 93.632C277.622 93.632 280.79 93.088 284.694 92C283.542 91.552 282.614 90.752 281.91 89.6C281.27 88.448 280.95 87.136 280.95 85.664C280.95 84.384 281.174 82.784 281.622 80.864C282.07 78.944 282.55 76.992 283.062 75.008C283.894 71.936 284.534 69.376 284.982 67.328C285.43 65.216 285.654 63.232 285.654 61.376C285.654 58.944 285.142 56.928 284.118 55.328C283.158 53.664 281.462 52.48 279.03 51.776C282.23 49.856 284.758 47.392 286.614 44.384C288.47 41.376 289.398 38.368 289.398 35.36C289.398 32.608 288.598 30.08 286.998 27.776C285.398 25.408 282.966 23.52 279.702 22.112C276.438 20.704 272.406 20 267.606 20C262.358 20 257.11 21.216 251.862 23.648C246.614 26.016 242.294 29.152 238.902 33.056C235.574 36.896 233.91 40.864 233.91 44.96C233.91 48.288 234.742 50.688 236.406 52.16C238.134 53.568 240.726 54.272 244.182 54.272C244.182 54.144 243.958 53.632 243.51 52.736C243.062 51.776 242.838 50.112 242.838 47.744C242.838 42.944 243.894 38.784 246.006 35.264C248.182 31.744 251.222 29.056 255.126 27.2C259.03 25.344 263.574 24.416 268.758 24.416C272.278 24.416 274.902 25.376 276.63 27.296C278.422 29.152 279.318 31.552 279.318 34.496C279.318 36.992 278.71 39.552 277.494 42.176C276.342 44.736 274.71 46.88 272.598 48.608C270.486 50.336 268.182 51.2 265.686 51.2H264.918L269.622 29.024L255.414 30.944L242.358 92H256.182L263.862 55.808C264.95 55.552 266.006 55.424 267.03 55.424C270.87 55.424 272.79 57.6 272.79 61.952C272.79 63.616 272.566 65.504 272.118 67.616C271.67 69.728 270.998 72.288 270.102 75.296C269.334 78.176 268.726 80.544 268.278 82.4C267.894 84.192 267.702 85.792 267.702 87.2ZM293.678 88.928C296.302 91.36 299.982 92.576 304.718 92.576C313.196 92.576 320.568 88.7131 326.834 80.9872C327.302 84.3717 328.436 86.9867 330.234 88.832C332.666 91.328 335.706 92.576 339.354 92.576C342.49 92.576 345.178 91.776 347.418 90.176C349.722 88.512 351.802 86.368 353.658 83.744C353.978 86.624 354.938 88.832 356.538 90.368C358.202 91.84 360.378 92.576 363.066 92.576C366.586 92.576 370.074 91.36 373.53 88.928C375.163 87.7695 376.673 86.1354 378.059 84.0256C378.714 86.0188 379.712 87.6529 381.053 88.928C383.677 91.36 387.357 92.576 392.093 92.576C400.678 92.576 408.129 88.6151 414.445 80.6933C414.442 80.8168 414.441 80.9377 414.441 81.056C414.441 84.896 415.369 87.776 417.225 89.696C419.145 91.616 421.641 92.576 424.713 92.576C428.361 92.576 432.041 91.36 435.753 88.928C439.465 86.432 442.505 81.728 444.873 74.816H440.841C440.137 77.312 438.985 79.36 437.385 80.96C435.785 82.496 434.057 83.264 432.201 83.264C430.793 83.264 429.769 83.008 429.129 82.496C428.553 81.92 428.265 80.992 428.265 79.712C428.265 78.624 428.393 77.6 428.649 76.64L434.793 47.84H440.553L441.321 44H435.561L438.825 28.832L424.617 30.752L421.737 44H418.569L417.801 47.84H420.969L415.209 74.816C415.207 74.8256 415.205 74.8352 415.203 74.8448C412.269 78.0943 409.558 80.5167 407.069 82.112C404.637 83.712 401.693 84.512 398.237 84.512C395.805 84.512 394.045 83.968 392.957 82.88C391.869 81.728 391.325 79.584 391.325 76.448C391.325 72.864 391.933 68.832 393.149 64.352C394.365 59.872 395.933 56.064 397.853 52.928C399.773 49.792 401.693 48.224 403.613 48.224C404.509 48.224 405.181 48.576 405.629 49.28C406.077 49.984 406.301 50.944 406.301 52.16C406.301 53.824 405.917 55.712 405.149 57.824C406.301 58.592 407.421 58.976 408.509 58.976C409.981 58.976 411.197 58.368 412.157 57.152C413.117 55.936 413.597 54.208 413.597 51.968C413.597 49.408 412.765 47.296 411.101 45.632C409.501 43.968 406.781 43.136 402.941 43.136C396.989 43.136 392.061 45.088 388.157 48.992C384.317 52.832 381.501 57.408 379.709 62.72C377.981 68.032 377.117 72.896 377.117 77.312C377.117 77.5827 377.12 77.8498 377.127 78.1132C376.56 79.3467 375.905 80.4237 375.162 81.344C373.882 83.008 372.346 83.84 370.554 83.84C367.93 83.84 366.618 82.464 366.618 79.712C366.618 78.624 366.746 77.6 367.002 76.64L373.914 44H360.09L359.034 49.088V48.416C359.034 46.944 358.394 45.76 357.114 44.864C355.834 43.968 353.882 43.52 351.258 43.52C346.074 43.52 341.594 45.344 337.818 48.992C334.106 52.576 331.29 56.992 329.37 62.24C327.637 67.0793 326.713 71.7234 326.598 76.1723C324.132 78.7621 321.831 80.742 319.694 82.112C317.262 83.712 314.318 84.512 310.862 84.512C308.43 84.512 306.67 83.968 305.582 82.88C304.494 81.728 303.95 79.584 303.95 76.448C303.95 75.808 304.014 74.528 304.142 72.608C307.982 72.352 311.598 71.328 314.99 69.536C318.382 67.68 321.102 65.248 323.15 62.24C325.198 59.232 326.222 55.936 326.222 52.352C326.222 46.208 322.702 43.136 315.662 43.136C309.646 43.136 304.686 45.088 300.782 48.992C296.878 52.832 294.062 57.408 292.334 62.72C290.606 68.032 289.742 72.896 289.742 77.312C289.742 82.56 291.054 86.432 293.678 88.928ZM311.63 65.504C309.518 67.04 307.278 67.872 304.91 68C305.87 62.88 307.438 58.304 309.614 54.272C311.854 50.24 314.126 48.224 316.43 48.224C318.03 48.224 318.83 49.536 318.83 52.16C318.83 54.784 318.158 57.28 316.814 59.648C315.534 62.016 313.806 63.968 311.63 65.504ZM350.298 81.056C348.762 82.528 347.194 83.264 345.594 83.264C344.25 83.264 343.098 82.816 342.138 81.92C341.242 81.024 340.794 78.976 340.794 75.776C340.794 72.576 341.37 68.896 342.522 64.736C343.674 60.512 345.274 56.928 347.322 53.984C349.37 50.976 351.674 49.472 354.234 49.472C355.578 49.472 356.57 49.888 357.21 50.72C357.85 51.488 358.17 52.288 358.17 53.12L353.562 74.816C352.986 77.44 351.898 79.52 350.298 81.056ZM265.001 199.2C265.001 203.488 267.497 205.632 272.489 205.632C274.921 205.632 278.089 205.088 281.993 204C280.841 203.552 279.913 202.752 279.209 201.6C278.569 200.448 278.249 199.136 278.249 197.664C278.249 196.384 278.473 194.784 278.921 192.864C279.369 190.944 279.849 188.992 280.361 187.008C281.193 183.936 281.833 181.376 282.281 179.328C282.729 177.216 282.953 175.232 282.953 173.376C282.953 170.944 282.441 168.928 281.417 167.328C280.457 165.664 278.761 164.48 276.329 163.776C279.529 161.856 282.057 159.392 283.913 156.384C285.769 153.376 286.697 150.368 286.697 147.36C286.697 144.608 285.897 142.08 284.297 139.776C282.697 137.408 280.265 135.52 277.001 134.112C273.737 132.704 269.705 132 264.905 132C259.657 132 254.409 133.216 249.161 135.648C243.913 138.016 239.593 141.152 236.201 145.056C232.873 148.896 231.209 152.864 231.209 156.96C231.209 160.288 232.041 162.688 233.705 164.16C235.433 165.568 238.025 166.272 241.481 166.272C241.481 166.144 241.257 165.632 240.809 164.736C240.361 163.776 240.137 162.112 240.137 159.744C240.137 154.944 241.193 150.784 243.305 147.264C245.481 143.744 248.521 141.056 252.425 139.2C256.329 137.344 260.873 136.416 266.057 136.416C269.577 136.416 272.201 137.376 273.929 139.296C275.721 141.152 276.617 143.552 276.617 146.496C276.617 148.992 276.009 151.552 274.793 154.176C273.641 156.736 272.009 158.88 269.897 160.608C267.785 162.336 265.481 163.2 262.985 163.2H262.217L266.921 141.024L252.713 142.944L239.657 204H253.481L261.161 167.808C262.249 167.552 263.305 167.424 264.329 167.424C268.169 167.424 270.089 169.6 270.089 173.952C270.089 175.616 269.865 177.504 269.417 179.616C268.969 181.728 268.297 184.288 267.401 187.296C266.633 190.176 266.025 192.544 265.577 194.4C265.193 196.192 265.001 197.792 265.001 199.2ZM301.154 203.616C304.226 205.024 307.778 205.728 311.81 205.728C316.61 205.728 320.962 204.768 324.866 202.848C328.834 200.928 331.938 198.304 334.178 194.976C336.482 191.648 337.634 187.936 337.634 183.84C337.634 180.832 337.058 178.048 335.906 175.488C334.818 172.864 333.474 170.56 331.874 168.576C330.338 166.592 328.29 164.224 325.73 161.472C322.594 158.016 320.29 155.2 318.818 153.024C317.346 150.784 316.61 148.384 316.61 145.824C316.61 143.008 317.41 140.704 319.01 138.912C320.674 137.056 322.786 136.128 325.346 136.128C327.458 136.128 329.122 136.736 330.338 137.952C331.554 139.168 332.162 140.8 332.162 142.848C332.162 144.448 331.81 145.984 331.106 147.456C330.402 148.928 329.442 150.112 328.226 151.008C329.698 152.992 331.65 153.984 334.082 153.984C336.258 153.984 338.018 153.152 339.362 151.488C340.706 149.824 341.378 147.648 341.378 144.96C341.378 140.864 339.81 137.6 336.674 135.168C333.602 132.736 329.474 131.52 324.29 131.52C320.194 131.52 316.514 132.288 313.25 133.824C309.986 135.36 307.426 137.472 305.57 140.16C303.714 142.784 302.786 145.76 302.786 149.088C302.786 152.48 303.65 155.616 305.378 158.496C307.17 161.312 309.794 164.704 313.25 168.672C316.578 172.512 319.074 175.776 320.738 178.464C322.402 181.152 323.234 184 323.234 187.008C323.234 190.464 322.114 193.344 319.874 195.648C317.698 197.888 314.914 199.008 311.522 199.008C308.77 199.008 306.562 198.176 304.898 196.512C303.234 194.848 302.402 192.64 302.402 189.888C302.402 186.88 303.394 184.512 305.378 182.784C307.362 180.992 310.018 180.096 313.346 180.096C312.962 178.112 312.002 176.576 310.466 175.488C308.93 174.336 307.042 173.76 304.802 173.76C302.37 173.76 300.13 174.432 298.082 175.776C296.098 177.12 294.498 178.944 293.282 181.248C292.13 183.552 291.554 186.112 291.554 188.928C291.554 192.256 292.386 195.2 294.05 197.76C295.714 200.256 298.082 202.208 301.154 203.616ZM408.972 225.504C411.788 227.168 414.636 228 417.516 228C420.14 228 422.316 226.656 424.044 223.968C425.836 221.28 426.988 217.6 427.5 212.928C425.004 213.952 422.316 214.464 419.436 214.464C416.236 214.464 413.164 213.856 410.22 212.64C407.276 211.488 403.724 209.792 399.564 207.552C396.876 206.08 394.572 204.896 392.652 204C390.796 203.168 388.972 202.528 387.18 202.08L401.964 133.152C400.3 133.024 399.02 132.96 398.124 132.96C392.876 132.96 387.628 134.176 382.38 136.608C377.132 138.976 372.812 142.112 369.42 146.016C366.092 149.856 364.428 153.824 364.428 157.92C364.428 161.248 365.26 163.648 366.924 165.12C368.652 166.528 371.244 167.232 374.7 167.232C374.7 167.104 374.476 166.592 374.028 165.696C373.58 164.736 373.356 163.072 373.356 160.704C373.356 155.584 374.508 151.264 376.812 147.744C379.18 144.16 382.508 141.504 386.796 139.776L372.492 206.304C373.004 206.24 373.74 206.208 374.7 206.208C377.452 206.208 380.14 206.752 382.764 207.84C385.452 208.928 387.916 210.24 390.156 211.776C392.46 213.376 395.212 215.456 398.412 218.016C402.7 221.408 406.22 223.904 408.972 225.504ZM402.627 200.832C405.059 203.328 408.099 204.576 411.747 204.576C414.883 204.576 417.571 203.776 419.811 202.176C422.115 200.512 424.195 198.368 426.051 195.744C426.371 198.624 427.331 200.832 428.931 202.368C430.595 203.84 432.771 204.576 435.459 204.576C438.979 204.576 442.467 203.36 445.923 200.928C446.705 200.374 447.459 199.71 448.184 198.938L447.11 204H460.934L467.462 173.184C468.23 170.56 469.254 168.448 470.534 166.848C471.814 165.184 473.286 164.352 474.95 164.352C477.254 164.352 478.406 165.984 478.406 169.248C478.406 170.592 478.182 172.352 477.734 174.528C477.286 176.704 476.806 178.912 476.294 181.152C476.166 181.6 475.91 182.624 475.526 184.224C475.206 185.824 474.886 187.488 474.566 189.216C474.246 190.88 474.086 192.384 474.086 193.728C474.086 196.8 474.982 199.392 476.774 201.504C478.63 203.552 481.51 204.576 485.414 204.576C488.742 204.576 491.942 203.392 495.014 201.024C496.42 199.934 497.748 198.381 498.999 196.366C499.605 198.167 500.481 199.656 501.627 200.832C504.059 203.328 507.099 204.576 510.747 204.576C515.163 204.576 519.003 202.816 522.267 199.296L521.115 204.384C516.571 205.856 512.827 207.68 509.883 209.856C506.939 212.096 505.467 215.04 505.467 218.688C505.467 221.696 506.491 224 508.539 225.6C510.587 227.2 513.147 228 516.219 228C520.187 228 523.739 226.816 526.875 224.448C530.011 222.144 532.219 217.888 533.499 211.68L534.939 204.768C538.651 203.808 541.979 202.016 544.923 199.392C547.867 196.704 550.203 192.512 551.931 186.816H547.899C546.619 190.848 545.051 193.888 543.195 195.936C541.339 197.984 538.875 199.52 535.803 200.544L545.307 156H531.483L530.427 160.992V160.416C530.427 158.944 529.787 157.76 528.507 156.864C527.227 155.968 525.275 155.52 522.651 155.52C517.467 155.52 512.987 157.344 509.211 160.992C505.499 164.576 502.683 168.992 500.763 174.24C498.907 179.424 497.979 184.384 497.979 189.12C497.979 189.302 497.981 189.483 497.984 189.662C497.25 191.156 496.516 192.351 495.782 193.248C494.63 194.592 493.094 195.264 491.174 195.264C489.766 195.264 488.774 194.912 488.198 194.208C487.622 193.504 487.334 192.512 487.334 191.232C487.334 190.144 487.526 188.672 487.91 186.816C488.358 184.896 488.838 182.944 489.35 180.96C490.182 177.696 490.822 174.944 491.27 172.704C491.718 170.4 491.942 168.32 491.942 166.464C491.942 162.816 490.982 160.096 489.062 158.304C487.142 156.512 484.55 155.616 481.286 155.616C476.998 155.616 473.254 157.408 470.054 160.992L471.11 156H457.286L450.753 186.816H450.723C449.955 189.504 448.899 191.68 447.555 193.344C446.275 195.008 444.739 195.84 442.947 195.84C440.323 195.84 439.011 194.464 439.011 191.712C439.011 190.624 439.139 189.6 439.395 188.64L446.307 156H432.483L431.427 161.088V160.416C431.427 158.944 430.787 157.76 429.507 156.864C428.227 155.968 426.275 155.52 423.651 155.52C418.467 155.52 413.987 157.344 410.211 160.992C406.499 164.576 403.683 168.992 401.763 174.24C399.907 179.424 398.979 184.384 398.979 189.12C398.979 194.432 400.195 198.336 402.627 200.832ZM422.691 193.056C421.155 194.528 419.587 195.264 417.987 195.264C416.643 195.264 415.491 194.816 414.531 193.92C413.635 193.024 413.187 190.976 413.187 187.776C413.187 184.576 413.763 180.896 414.915 176.736C416.067 172.512 417.667 168.928 419.715 165.984C421.763 162.976 424.067 161.472 426.627 161.472C427.971 161.472 428.963 161.888 429.603 162.72C430.243 163.488 430.563 164.288 430.563 165.12L425.955 186.816C425.379 189.44 424.291 191.52 422.691 193.056ZM521.499 193.248C519.963 194.592 518.459 195.264 516.987 195.264C515.643 195.264 514.491 194.816 513.531 193.92C512.635 193.024 512.187 190.976 512.187 187.776C512.187 184.576 512.763 180.896 513.915 176.736C515.067 172.512 516.667 168.928 518.715 165.984C520.763 162.976 523.067 161.472 525.627 161.472C526.971 161.472 527.963 161.888 528.603 162.72C529.243 163.488 529.563 164.256 529.563 165.024L524.667 187.776C524.091 190.08 523.035 191.904 521.499 193.248ZM517.179 218.304C516.155 219.776 515.099 220.512 514.011 220.512C512.987 220.512 512.187 220.192 511.611 219.552C511.035 218.912 510.747 218.176 510.747 217.344C510.747 214.208 513.883 211.488 520.155 209.184L519.579 211.968C519.003 214.72 518.203 216.832 517.179 218.304Z" fill="white" fill-opacity="0.87"/>
<defs>
<linearGradient id="paint0_linear" x1="-273.531" y1="116.6" x2="247.373" y2="111.77" gradientUnits="userSpaceOnUse">
<stop stop-color="#FC522D"/>
<stop offset="1" stop-color="#E82DBF"/>
</linearGradient>
</defs>
</svg>
